<svg width="31" height="26" viewBox="0 0 31 26" fill="none" xmlns="http://www.w3.org/2000/svg">
<path d="M1.70834 8.54168C1.70834 5.32041 1.70834 3.70978 2.70906 2.70906C3.70978 1.70834 5.32041 1.70834 8.54168 1.70834H22.2083C25.4296 1.70834 27.0402 1.70834 28.041 2.70906C29.0417 3.70978 29.0417 5.32041 29.0417 8.54168V10.25C29.0417 16.6925 29.0417 19.9138 27.0402 21.9152C27.0402 21.9152 27.0402 21.9152 27.0402 21.9152C25.0388 23.9167 21.8175 23.9167 15.375 23.9167C8.93248 23.9167 5.71122 23.9167 3.70978 21.9152C3.70978 21.9152 3.70978 21.9152 3.70978 21.9152C1.70834 19.9138 1.70834 16.6925 1.70834 10.25V8.54168Z" stroke="white" stroke-width="3.41667"/>
</svg>
