<svg xmlns="http://www.w3.org/2000/svg" viewBox="0 0 400 280">
  <defs>
    <linearGradient id="classic-bun-top" x1="0%" y1="0%" x2="0%" y2="100%">
      <stop offset="0%" style="stop-color:#E8A54B"/>
      <stop offset="100%" style="stop-color:#D4863A"/>
    </linearGradient>
    <linearGradient id="classic-bun-bottom" x1="0%" y1="0%" x2="0%" y2="100%">
      <stop offset="0%" style="stop-color:#D4863A"/>
      <stop offset="100%" style="stop-color:#C07030"/>
    </linearGradient>
  </defs>
  
  <!-- Bottom bun -->
  <ellipse cx="200" cy="250" rx="140" ry="25" fill="url(#classic-bun-bottom)"/>
  
  <!-- Lettuce -->
  <path d="M60 225 Q90 240, 120 220 Q150 240, 180 220 Q210 240, 240 220 Q270 240, 300 220 Q330 240, 340 225 L340 240 Q320 230, 290 245 Q260 230, 230 245 Q200 230, 170 245 Q140 230, 110 245 Q80 230, 60 240 Z" fill="#4CAF50"/>
  
  <!-- Tomato -->
  <ellipse cx="200" cy="200" rx="120" ry="18" fill="#E53935"/>
  
  <!-- Cheese - melting -->
  <path d="M70 175 Q90 190, 110 175 Q130 195, 150 175 Q170 195, 190 175 Q210 195, 230 175 Q250 195, 270 175 Q290 195, 310 175 Q330 185, 330 175 L330 165 L70 165 Z" fill="#FFC107"/>
  
  <!-- Patty -->
  <ellipse cx="200" cy="150" rx="135" ry="35" fill="#5D4037"/>
  <ellipse cx="200" cy="140" rx="130" ry="30" fill="#6D4C41"/>
  
  <!-- Lettuce top -->
  <path d="M70 120 Q100 135, 130 115 Q160 135, 190 115 Q220 135, 250 115 Q280 135, 330 120 L330 130 Q290 125, 260 140 Q230 125, 200 140 Q170 125, 140 140 Q110 125, 70 130 Z" fill="#66BB6A"/>
  
  <!-- Top bun -->
  <path d="M70 120 Q70 40, 200 25 Q330 40, 330 120 Q330 130, 200 135 Q70 130, 70 120" fill="url(#classic-bun-top)"/>
  
  <!-- Sesame seeds -->
  <ellipse cx="130" cy="60" rx="7" ry="4" fill="#FFFDE7" transform="rotate(-15 130 60)"/>
  <ellipse cx="175" cy="50" rx="7" ry="4" fill="#FFFDE7" transform="rotate(10 175 50)"/>
  <ellipse cx="220" cy="45" rx="7" ry="4" fill="#FFFDE7" transform="rotate(-10 220 45)"/>
  <ellipse cx="265" cy="55" rx="7" ry="4" fill="#FFFDE7" transform="rotate(20 265 55)"/>
  <ellipse cx="155" cy="85" rx="7" ry="4" fill="#FFFDE7" transform="rotate(5 155 85)"/>
  <ellipse cx="200" cy="70" rx="7" ry="4" fill="#FFFDE7" transform="rotate(-5 200 70)"/>
  <ellipse cx="245" cy="80" rx="7" ry="4" fill="#FFFDE7" transform="rotate(15 245 80)"/>
</svg>
