<svg width="32" height="36" viewBox="0 0 32 36" fill="none" xmlns="http://www.w3.org/2000/svg">
<path d="M15.75 1.75V0V1.75ZM29.75 15.75H31.5H29.75ZM16.4473 33.4092L17.2462 34.9662L17.2462 34.9662L16.4473 33.4092ZM15.0527 33.4092L14.2538 34.9662L14.2538 34.9662L15.0527 33.4092ZM1.75 15.75H0H1.75ZM15.75 9.75L15.75 8H15.75V9.75ZM9.75 15.75H8V15.75L9.75 15.75ZM15.75 21.75V23.5H15.75L15.75 21.75ZM21.75 15.75L23.5 15.75V15.75H21.75ZM15.75 1.75V3.5C22.5155 3.5 28 8.98451 28 15.75H29.75H31.5C31.5 7.05152 24.4485 1.19209e-07 15.75 0V1.75ZM29.75 15.75H28C28 20.1823 25.7172 23.8147 22.9236 26.6015C20.1327 29.3858 16.9851 31.1663 15.6483 31.8522L16.4473 33.4092L17.2462 34.9662C18.7386 34.2003 22.2424 32.225 25.3955 29.0794C28.546 25.9365 31.5 21.4652 31.5 15.75H29.75ZM16.4473 33.4092L15.6483 31.8522C15.6701 31.841 15.7058 31.8299 15.75 31.8299C15.7942 31.8299 15.8299 31.841 15.8517 31.8522L15.0527 33.4092L14.2538 34.9662C15.1988 35.4511 16.3012 35.4511 17.2462 34.9662L16.4473 33.4092ZM15.0527 33.4092L15.8517 31.8522C14.5149 31.1663 11.3673 29.3858 8.57638 26.6015C5.78278 23.8147 3.5 20.1823 3.5 15.75H1.75H0C5.96046e-07 21.4652 2.954 25.9365 6.10448 29.0794C9.25763 32.225 12.7614 34.2003 14.2538 34.9662L15.0527 33.4092ZM1.75 15.75H3.5C3.5 8.98451 8.98451 3.5 15.75 3.5V1.75V0C7.05152 0 0 7.05152 0 15.75H1.75ZM15.75 9.75V8C11.4698 8 8 11.4698 8 15.75H9.75H11.5C11.5 13.4028 13.4028 11.5 15.75 11.5V9.75ZM9.75 15.75L8 15.75C8 20.0302 11.4698 23.5 15.75 23.5V21.75V20C13.4028 20 11.5 18.0972 11.5 15.75L9.75 15.75ZM15.75 21.75L15.75 23.5C20.0302 23.5 23.5 20.0302 23.5 15.75L21.75 15.75L20 15.75C20 18.0972 18.0972 20 15.75 20L15.75 21.75ZM21.75 15.75H23.5C23.5 11.4698 20.0302 8.00001 15.75 8L15.75 9.75L15.75 11.5C18.0972 11.5 20 13.4028 20 15.75H21.75Z" fill="white"/>
</svg>
