<svg xmlns="http://www.w3.org/2000/svg" viewBox="0 0 400 400">
  <defs>
    <linearGradient id="bun-top" x1="0%" y1="0%" x2="0%" y2="100%">
      <stop offset="0%" style="stop-color:#E8A54B"/>
      <stop offset="100%" style="stop-color:#D4863A"/>
    </linearGradient>
    <linearGradient id="bun-bottom" x1="0%" y1="0%" x2="0%" y2="100%">
      <stop offset="0%" style="stop-color:#D4863A"/>
      <stop offset="100%" style="stop-color:#C07030"/>
    </linearGradient>
  </defs>
  
  <!-- Shadow -->
  <ellipse cx="200" cy="380" rx="140" ry="15" fill="rgba(0,0,0,0.2)"/>
  
  <!-- Bottom bun -->
  <ellipse cx="200" cy="340" rx="150" ry="35" fill="url(#bun-bottom)"/>
  
  <!-- Lettuce bottom -->
  <path d="M50 310 Q80 320, 110 305 Q140 320, 170 305 Q200 320, 230 305 Q260 320, 290 305 Q320 320, 350 310 L350 330 Q320 320, 290 335 Q260 320, 230 335 Q200 320, 170 335 Q140 320, 110 335 Q80 320, 50 330 Z" fill="#4CAF50"/>
  
  <!-- Tomato slices -->
  <ellipse cx="160" cy="280" rx="60" ry="15" fill="#E53935"/>
  <ellipse cx="240" cy="275" rx="55" ry="15" fill="#C62828"/>
  
  <!-- Cheese -->
  <path d="M60 250 L80 270 L320 270 L340 250 Q330 265, 310 255 Q290 270, 270 255 Q250 270, 230 255 Q210 270, 190 255 Q170 270, 150 255 Q130 270, 110 255 Q90 265, 60 250" fill="#FFC107"/>
  
  <!-- Patty -->
  <ellipse cx="200" cy="230" rx="145" ry="40" fill="#5D4037"/>
  <ellipse cx="200" cy="220" rx="140" ry="35" fill="#6D4C41"/>
  
  <!-- Onion -->
  <ellipse cx="180" cy="195" rx="40" ry="8" fill="rgba(255,255,255,0.7)" stroke="#E0E0E0" stroke-width="2"/>
  <ellipse cx="220" cy="190" rx="35" ry="7" fill="rgba(255,255,255,0.7)" stroke="#E0E0E0" stroke-width="2"/>
  
  <!-- Lettuce top -->
  <path d="M55 180 Q85 195, 115 175 Q145 195, 175 175 Q205 195, 235 175 Q265 195, 295 175 Q325 195, 345 180 L345 195 Q325 185, 295 200 Q265 185, 235 200 Q205 185, 175 200 Q145 185, 115 200 Q85 185, 55 195 Z" fill="#66BB6A"/>
  
  <!-- Top bun -->
  <path d="M60 175 Q60 80, 200 60 Q340 80, 340 175 Q340 190, 200 195 Q60 190, 60 175" fill="url(#bun-top)"/>
  
  <!-- Sesame seeds -->
  <ellipse cx="130" cy="100" rx="8" ry="5" fill="#FFFDE7" transform="rotate(-20 130 100)"/>
  <ellipse cx="180" cy="85" rx="8" ry="5" fill="#FFFDE7" transform="rotate(10 180 85)"/>
  <ellipse cx="230" cy="80" rx="8" ry="5" fill="#FFFDE7" transform="rotate(-15 230 80)"/>
  <ellipse cx="270" cy="95" rx="8" ry="5" fill="#FFFDE7" transform="rotate(25 270 95)"/>
  <ellipse cx="150" cy="130" rx="8" ry="5" fill="#FFFDE7" transform="rotate(5 150 130)"/>
  <ellipse cx="200" cy="110" rx="8" ry="5" fill="#FFFDE7" transform="rotate(-10 200 110)"/>
  <ellipse cx="250" cy="125" rx="8" ry="5" fill="#FFFDE7" transform="rotate(15 250 125)"/>
  <ellipse cx="290" cy="135" rx="8" ry="5" fill="#FFFDE7" transform="rotate(-5 290 135)"/>
  <ellipse cx="110" cy="140" rx="7" ry="4" fill="#FFFDE7" transform="rotate(20 110 140)"/>
</svg>
